<svg width="40" height="40" viewBox="0 0 40 40" fill="none" xmlns="http://www.w3.org/2000/svg">
<path d="M18.3294 2.65084C18.9875 1.5496 20.5828 1.5496 21.2409 2.65084L26.9669 12.2325C27.1107 12.4732 27.312 12.6745 27.5527 12.8183L37.1343 18.5443C38.2356 19.2024 38.2356 20.7976 37.1343 21.4557L27.5527 27.1817C27.312 27.3255 27.1107 27.5268 26.9669 27.7675L21.2409 37.3492C20.5828 38.4504 18.9875 38.4504 18.3294 37.3492L12.6035 27.7675C12.4596 27.5268 12.2583 27.3255 12.0177 27.1817L2.43599 21.4557C1.33476 20.7976 1.33476 19.2024 2.43599 18.5443L12.0177 12.8183C12.2583 12.6745 12.4596 12.4732 12.6035 12.2325L18.3294 2.65084Z" fill="#030A00"/>
<g filter="url(#filter0_di_1115_10691)">
<path d="M19.0812 11.2333C19.2213 10.4469 20.3495 10.4469 20.4896 11.2333C20.6087 11.9017 21.5049 12.0437 21.8248 11.4447C22.201 10.7401 23.274 11.0887 23.1642 11.88C23.0709 12.5525 23.8794 12.9645 24.3687 12.4937C24.9443 11.9398 25.857 12.6029 25.5081 13.3215C25.2115 13.9323 25.8531 14.5739 26.4639 14.2774C27.1825 13.9285 27.8456 14.8412 27.2918 15.4168C26.821 15.906 27.2329 16.7145 27.9055 16.6212C28.6967 16.5115 29.0453 17.5844 28.3407 17.9607C27.7418 18.2805 27.8837 19.1767 28.5522 19.2958C29.3386 19.436 29.3386 20.5641 28.5522 20.7042C27.8837 20.8233 27.7418 21.7195 28.3407 22.0394C29.0453 22.4157 28.6967 23.4886 27.9055 23.3788C27.2329 23.2855 26.821 24.094 27.2918 24.5833C27.8456 25.1589 27.1825 26.0716 26.4639 25.7227C25.8531 25.4262 25.2115 26.0678 25.5081 26.6786C25.857 27.3972 24.9443 28.0603 24.3687 27.5064C23.8794 27.0356 23.0709 27.4476 23.1642 28.1201C23.274 28.9113 22.201 29.26 21.8248 28.5553C21.5049 27.9564 20.6087 28.0983 20.4896 28.7668C20.3495 29.5532 19.2213 29.5532 19.0812 28.7668C18.9621 28.0983 18.0659 27.9564 17.7461 28.5553C17.3698 29.26 16.2969 28.9113 16.4066 28.1201C16.4999 27.4476 15.6914 27.0356 15.2022 27.5064C14.6266 28.0603 13.7139 27.3972 14.0627 26.6786C14.3593 26.0678 13.7177 25.4262 13.1069 25.7227C12.3883 26.0716 11.7252 25.1589 12.2791 24.5833C12.7498 24.094 12.3379 23.2855 11.6654 23.3788C10.8741 23.4886 10.5255 22.4157 11.2301 22.0394C11.8291 21.7195 11.6871 20.8233 11.0187 20.7042C10.2323 20.5641 10.2323 19.436 11.0187 19.2958C11.6871 19.1767 11.8291 18.2805 11.2301 17.9607C10.5255 17.5844 10.8741 16.5115 11.6654 16.6212C12.3379 16.7145 12.7498 15.906 12.2791 15.4168C11.7252 14.8412 12.3883 13.9285 13.1069 14.2774C13.7177 14.5739 14.3593 13.9323 14.0627 13.3215C13.7139 12.6029 14.6266 11.9398 15.2022 12.4937C15.6914 12.9645 16.4999 12.5525 16.4066 11.88C16.2969 11.0887 17.3698 10.7401 17.7461 11.4447C18.0659 12.0437 18.9621 11.9017 19.0812 11.2333Z" fill="#FAFAFA"/>
<path d="M19.6768 11.3394C19.6857 11.2892 19.7029 11.2755 19.7098 11.2702C19.723 11.26 19.7491 11.2484 19.7854 11.2484C19.8218 11.2484 19.8478 11.26 19.8611 11.2702C19.868 11.2755 19.8851 11.2892 19.8941 11.3394C20.1139 12.5732 21.768 12.8352 22.3584 11.7297C22.3824 11.6848 22.4029 11.677 22.4111 11.6741C22.4269 11.6685 22.4552 11.6655 22.4898 11.6767C22.5244 11.688 22.5456 11.7071 22.555 11.7209C22.5599 11.7281 22.572 11.7464 22.565 11.7968C22.3928 13.0382 23.8851 13.7985 24.7881 12.9296C24.8248 12.8942 24.8467 12.8932 24.8555 12.893C24.8722 12.8925 24.9001 12.8984 24.9295 12.9198C24.9589 12.9412 24.9732 12.9659 24.9779 12.9819C24.9803 12.9903 24.9861 13.0115 24.9639 13.0573C24.4165 14.1847 25.6008 15.3689 26.7282 14.8215C26.774 14.7993 26.7951 14.8051 26.8035 14.8076C26.8195 14.8123 26.8443 14.8265 26.8656 14.856C26.887 14.8854 26.8929 14.9133 26.8924 14.93C26.8922 14.9387 26.8912 14.9606 26.8559 14.9973C25.9869 15.9004 26.7472 17.3926 27.9886 17.2204C28.039 17.2134 28.0574 17.2255 28.0646 17.2304C28.0784 17.2399 28.0975 17.2611 28.1087 17.2956C28.1199 17.3302 28.1169 17.3586 28.1113 17.3743C28.1084 17.3825 28.1007 17.4031 28.0557 17.4271C26.9503 18.0174 27.2122 19.6716 28.446 19.8914C28.4962 19.9003 28.5099 19.9175 28.5152 19.9244C28.5254 19.9376 28.537 19.9637 28.537 20C28.537 20.0364 28.5254 20.0625 28.5152 20.0757C28.5099 20.0826 28.4962 20.0997 28.446 20.1087C27.2122 20.3285 26.9503 21.9827 28.0557 22.573C28.1007 22.597 28.1084 22.6175 28.1113 22.6258C28.1169 22.6415 28.1199 22.6699 28.1087 22.7044C28.0975 22.739 28.0784 22.7602 28.0646 22.7696C28.0574 22.7746 28.039 22.7866 27.9886 22.7796C26.7472 22.6075 25.9869 24.0997 26.8559 25.0027C26.8912 25.0394 26.8922 25.0614 26.8924 25.0701C26.8929 25.0868 26.887 25.1147 26.8656 25.1441C26.8443 25.1735 26.8195 25.1878 26.8035 25.1925C26.7951 25.195 26.774 25.2008 26.7282 25.1785C25.6008 24.6312 24.4165 25.8154 24.9639 26.9428C24.9861 26.9886 24.9803 27.0098 24.9779 27.0181C24.9732 27.0342 24.9589 27.0589 24.9295 27.0803C24.9001 27.1016 24.8722 27.1075 24.8555 27.1071C24.8467 27.1068 24.8248 27.1058 24.7881 27.0705C23.8851 26.2016 22.3928 26.9619 22.565 28.2032C22.572 28.2537 22.5599 28.272 22.555 28.2792C22.5456 28.293 22.5244 28.3121 22.4898 28.3233C22.4552 28.3346 22.4269 28.3316 22.4111 28.326C22.4029 28.323 22.3824 28.3153 22.3584 28.2704C21.768 27.1649 20.1139 27.4269 19.8941 28.6607C19.8851 28.7108 19.868 28.7245 19.8611 28.7299C19.8478 28.74 19.8218 28.7517 19.7854 28.7517C19.7491 28.7517 19.723 28.74 19.7098 28.7299C19.7029 28.7245 19.6857 28.7108 19.6768 28.6607C19.4569 27.4269 17.8028 27.1649 17.2125 28.2704C17.1885 28.3153 17.1679 28.323 17.1597 28.326C17.144 28.3316 17.1156 28.3346 17.081 28.3233C17.0464 28.3121 17.0252 28.293 17.0158 28.2792C17.0109 28.272 16.9988 28.2537 17.0058 28.2032C17.178 26.9619 15.6858 26.2016 14.7827 27.0705C14.746 27.1058 14.7241 27.1068 14.7154 27.1071C14.6987 27.1075 14.6707 27.1016 14.6413 27.0803C14.6119 27.0589 14.5977 27.0342 14.593 27.0181C14.5905 27.0098 14.5847 26.9886 14.6069 26.9428C15.1543 25.8154 13.9701 24.6312 12.8427 25.1785L13.1069 25.7227L12.8427 25.1785C12.7968 25.2008 12.7757 25.195 12.7673 25.1925C12.7513 25.1878 12.7266 25.1735 12.7052 25.1441C12.6838 25.1147 12.6779 25.0868 12.6784 25.0701C12.6786 25.0614 12.6796 25.0394 12.715 25.0027C13.5839 24.0997 12.8236 22.6075 11.5822 22.7796C11.5318 22.7866 11.5135 22.7746 11.5062 22.7696C11.4925 22.7602 11.4734 22.739 11.4621 22.7044C11.4509 22.6699 11.4539 22.6415 11.4595 22.6258C11.4624 22.6175 11.4702 22.597 11.5151 22.573C12.6206 21.9827 12.3586 20.3285 11.1248 20.1087C11.0746 20.0997 11.0609 20.0826 11.0556 20.0757C11.0454 20.0625 11.0338 20.0364 11.0338 20C11.0338 19.9637 11.0454 19.9376 11.0556 19.9244C11.0609 19.9175 11.0746 19.9003 11.1248 19.8914C12.3586 19.6716 12.6206 18.0174 11.5151 17.4271C11.4702 17.4031 11.4624 17.3825 11.4595 17.3743C11.4539 17.3586 11.4509 17.3302 11.4621 17.2956C11.4734 17.2611 11.4925 17.2399 11.5062 17.2304C11.5135 17.2255 11.5318 17.2134 11.5822 17.2204C12.8236 17.3926 13.5839 15.9004 12.715 14.9973C12.6796 14.9606 12.6786 14.9387 12.6784 14.93C12.6779 14.9133 12.6838 14.8854 12.7052 14.856C12.7266 14.8265 12.7513 14.8123 12.7673 14.8076C12.7757 14.8051 12.7968 14.7993 12.8427 14.8215C13.9701 15.3689 15.1543 14.1847 14.6069 13.0573C14.5847 13.0115 14.5905 12.9903 14.593 12.9819C14.5977 12.9659 14.6119 12.9412 14.6413 12.9198C14.6707 12.8984 14.6987 12.8925 14.7154 12.893C14.7241 12.8932 14.746 12.8942 14.7827 12.9296C15.6858 13.7985 17.178 13.0382 17.0058 11.7968C16.9988 11.7464 17.0109 11.7281 17.0158 11.7209C17.0252 11.7071 17.0464 11.688 17.081 11.6767C17.1156 11.6655 17.144 11.6685 17.1597 11.6741C17.1679 11.677 17.1885 11.6848 17.2125 11.7297C17.8028 12.8352 19.4569 12.5732 19.6768 11.3394Z" stroke="white" stroke-width="1.20987"/>
</g>
<defs>
<filter id="filter0_di_1115_10691" x="7.66354" y="9.46825" width="24.244" height="25.419" filterUnits="userSpaceOnUse" color-interpolation-filters="sRGB">
<feFlood flood-opacity="0" result="BackgroundImageFix"/>
<feColorMatrix in="SourceAlpha" type="matrix" values="0 0 0 0 0 0 0 0 0 0 0 0 0 0 0 0 0 0 127 0" result="hardAlpha"/>
<feOffset dy="2.76542"/>
<feGaussianBlur stdDeviation="1.38271"/>
<feComposite in2="hardAlpha" operator="out"/>
<feColorMatrix type="matrix" values="0 0 0 0 0 0 0 0 0 0 0 0 0 0 0 0 0 0 0.13 0"/>
<feBlend mode="normal" in2="BackgroundImageFix" result="effect1_dropShadow_1115_10691"/>
<feBlend mode="normal" in="SourceGraphic" in2="effect1_dropShadow_1115_10691" result="shape"/>
<feColorMatrix in="SourceAlpha" type="matrix" values="0 0 0 0 0 0 0 0 0 0 0 0 0 0 0 0 0 0 127 0" result="hardAlpha"/>
<feOffset dx="-2.59258" dy="-1.38271"/>
<feGaussianBlur stdDeviation="0.587651"/>
<feComposite in2="hardAlpha" operator="arithmetic" k2="-1" k3="1"/>
<feColorMatrix type="matrix" values="0 0 0 0 0 0 0 0 0 0 0 0 0 0 0 0 0 0 0.25 0"/>
<feBlend mode="normal" in2="shape" result="effect2_innerShadow_1115_10691"/>
</filter>
</defs>
</svg>
