<svg width="22" height="19" viewBox="0 0 22 19" fill="none" xmlns="http://www.w3.org/2000/svg">
<rect x="0.5" y="0.449707" width="21" height="18.0503" rx="2.48447" fill="#EDFAE7"/>
<path d="M13.1877 7.49462L20.2712 4.91345" stroke="#0C2503" stroke-width="1.73913" stroke-linecap="round"/>
<mask id="path-3-outside-1_1583_10953" maskUnits="userSpaceOnUse" x="1.19775" y="5.44971" width="18" height="12" fill="black">
<rect fill="white" x="1.19775" y="5.44971" width="18" height="12"/>
<path d="M16.2113 7.6603C16.9161 7.6603 17.4989 8.23599 17.3758 8.92997C17.1205 10.3707 16.4343 11.7098 15.3948 12.759C14.0549 14.1112 12.2375 14.8709 10.3426 14.8709C8.44767 14.8709 6.63035 14.1112 5.29043 12.759C4.25087 11.7098 3.56473 10.3707 3.30936 8.92997C3.18635 8.23599 3.76911 7.6603 4.47391 7.6603L10.3426 7.6603H16.2113Z"/>
</mask>
<path d="M16.2113 7.6603C16.9161 7.6603 17.4989 8.23599 17.3758 8.92997C17.1205 10.3707 16.4343 11.7098 15.3948 12.759C14.0549 14.1112 12.2375 14.8709 10.3426 14.8709C8.44767 14.8709 6.63035 14.1112 5.29043 12.759C4.25087 11.7098 3.56473 10.3707 3.30936 8.92997C3.18635 8.23599 3.76911 7.6603 4.47391 7.6603L10.3426 7.6603H16.2113Z" stroke="#0C2503" stroke-width="3.47826" mask="url(#path-3-outside-1_1583_10953)"/>
<mask id="path-4-outside-2_1583_10953" maskUnits="userSpaceOnUse" x="1.12219" y="1.25403" width="18" height="9" fill="black">
<rect fill="white" x="1.12219" y="1.25403" width="18" height="9"/>
<path d="M3.60905 7.38127L3.59673 7.39666C3.40555 7.63542 3.57554 7.9893 3.88141 7.9893H17.2656C17.1801 7.9893 17.1107 7.91994 17.1107 7.83437V7.76468C17.1107 7.69491 17.0783 7.62911 17.023 7.58659L16.7172 7.35148C16.671 7.31598 16.6144 7.29673 16.5561 7.29673H16.5154C16.3919 7.29673 16.2918 7.19665 16.2918 7.0732V6.8045C16.2918 6.61943 16.1704 6.4563 15.993 6.40327L15.9248 6.38285C15.788 6.34193 15.6943 6.21606 15.6943 6.07326C15.6943 5.94772 15.6216 5.83355 15.5078 5.78045L15.45 5.75345C15.4211 5.73997 15.3939 5.72327 15.3687 5.70368L15.016 5.4286C14.9552 5.38118 14.9196 5.30838 14.9196 5.23127C14.9196 5.18032 14.9041 5.13058 14.8751 5.0887L14.6871 4.81752C14.6387 4.74772 14.5591 4.70609 14.4742 4.70609C14.3803 4.70609 14.2937 4.65524 14.248 4.57322L14.1728 4.43839C14.1401 4.37965 14.1229 4.31249 14.1229 4.24523C14.1229 4.15405 14.0908 4.06437 14.0322 3.99451C13.9384 3.88278 13.79 3.83306 13.6479 3.86581L13.4688 3.90707C13.4181 3.91874 13.3663 3.92464 13.3143 3.92464H13.0163H12.5419C12.4617 3.92464 12.3966 3.85958 12.3966 3.77934C12.3966 3.69909 12.3315 3.63404 12.2513 3.63404H12.1992C12.1295 3.63404 12.0649 3.5973 12.0294 3.53736L12.0192 3.52025C11.9788 3.45206 11.9054 3.41026 11.8261 3.41026C11.7797 3.41026 11.7344 3.3959 11.6965 3.36915L11.6441 3.33214C11.5721 3.28132 11.4861 3.25403 11.398 3.25403H10.9377C10.8947 3.25403 10.8543 3.27415 10.8283 3.3084L10.7535 3.40724C10.6982 3.48027 10.5818 3.44117 10.5818 3.34957C10.5818 3.2968 10.539 3.25403 10.4862 3.25403H9.6547C9.50666 3.25403 9.38665 3.37404 9.38665 3.52208V3.73889C9.38665 3.78469 9.36321 3.8273 9.32452 3.85181C9.26138 3.89182 9.1777 3.87229 9.1388 3.80845L9.09551 3.73739C9.0564 3.6732 8.98668 3.63404 8.91152 3.63404H8.41812C8.28728 3.63404 8.16186 3.68635 8.0698 3.77934L7.98094 3.86908C7.94574 3.90464 7.89779 3.92464 7.84776 3.92464C7.74426 3.92464 7.66036 4.00854 7.66036 4.11205V4.14962C7.66036 4.25963 7.57118 4.34881 7.46117 4.34881H7.44062C7.34196 4.34881 7.26198 4.42879 7.26198 4.52745C7.26198 4.62611 7.182 4.70609 7.08334 4.70609H6.38559C6.25036 4.70609 6.13255 4.79829 6.10005 4.92955C6.06755 5.06082 5.94974 5.15302 5.81451 5.15302H5.7596C5.61093 5.15302 5.47718 5.24335 5.42164 5.38125L5.2625 5.77646C5.24035 5.83146 5.187 5.86749 5.1277 5.86749C5.04744 5.86749 4.98238 5.93255 4.98238 6.01281V6.22361C4.98238 6.3828 4.87673 6.52266 4.7236 6.56617L4.38535 6.66228C4.31435 6.68245 4.25474 6.73086 4.22042 6.79621L4.15322 6.92418C4.11202 7.00265 4.01069 7.0261 3.9392 6.97373C3.87835 6.92915 3.79348 6.93869 3.74404 6.99566L3.7214 7.02174C3.6926 7.05493 3.67674 7.09739 3.67674 7.14134V7.18842C3.67674 7.25853 3.65287 7.32655 3.60905 7.38127Z"/>
</mask>
<path d="M3.60905 7.38127L3.59673 7.39666C3.40555 7.63542 3.57554 7.9893 3.88141 7.9893H17.2656C17.1801 7.9893 17.1107 7.91994 17.1107 7.83437V7.76468C17.1107 7.69491 17.0783 7.62911 17.023 7.58659L16.7172 7.35148C16.671 7.31598 16.6144 7.29673 16.5561 7.29673H16.5154C16.3919 7.29673 16.2918 7.19665 16.2918 7.0732V6.8045C16.2918 6.61943 16.1704 6.4563 15.993 6.40327L15.9248 6.38285C15.788 6.34193 15.6943 6.21606 15.6943 6.07326C15.6943 5.94772 15.6216 5.83355 15.5078 5.78045L15.45 5.75345C15.4211 5.73997 15.3939 5.72327 15.3687 5.70368L15.016 5.4286C14.9552 5.38118 14.9196 5.30838 14.9196 5.23127C14.9196 5.18032 14.9041 5.13058 14.8751 5.0887L14.6871 4.81752C14.6387 4.74772 14.5591 4.70609 14.4742 4.70609C14.3803 4.70609 14.2937 4.65524 14.248 4.57322L14.1728 4.43839C14.1401 4.37965 14.1229 4.31249 14.1229 4.24523C14.1229 4.15405 14.0908 4.06437 14.0322 3.99451C13.9384 3.88278 13.79 3.83306 13.6479 3.86581L13.4688 3.90707C13.4181 3.91874 13.3663 3.92464 13.3143 3.92464H13.0163H12.5419C12.4617 3.92464 12.3966 3.85958 12.3966 3.77934C12.3966 3.69909 12.3315 3.63404 12.2513 3.63404H12.1992C12.1295 3.63404 12.0649 3.5973 12.0294 3.53736L12.0192 3.52025C11.9788 3.45206 11.9054 3.41026 11.8261 3.41026C11.7797 3.41026 11.7344 3.3959 11.6965 3.36915L11.6441 3.33214C11.5721 3.28132 11.4861 3.25403 11.398 3.25403H10.9377C10.8947 3.25403 10.8543 3.27415 10.8283 3.3084L10.7535 3.40724C10.6982 3.48027 10.5818 3.44117 10.5818 3.34957C10.5818 3.2968 10.539 3.25403 10.4862 3.25403H9.6547C9.50666 3.25403 9.38665 3.37404 9.38665 3.52208V3.73889C9.38665 3.78469 9.36321 3.8273 9.32452 3.85181C9.26138 3.89182 9.1777 3.87229 9.1388 3.80845L9.09551 3.73739C9.0564 3.6732 8.98668 3.63404 8.91152 3.63404H8.41812C8.28728 3.63404 8.16186 3.68635 8.0698 3.77934L7.98094 3.86908C7.94574 3.90464 7.89779 3.92464 7.84776 3.92464C7.74426 3.92464 7.66036 4.00854 7.66036 4.11205V4.14962C7.66036 4.25963 7.57118 4.34881 7.46117 4.34881H7.44062C7.34196 4.34881 7.26198 4.42879 7.26198 4.52745C7.26198 4.62611 7.182 4.70609 7.08334 4.70609H6.38559C6.25036 4.70609 6.13255 4.79829 6.10005 4.92955C6.06755 5.06082 5.94974 5.15302 5.81451 5.15302H5.7596C5.61093 5.15302 5.47718 5.24335 5.42164 5.38125L5.2625 5.77646C5.24035 5.83146 5.187 5.86749 5.1277 5.86749C5.04744 5.86749 4.98238 5.93255 4.98238 6.01281V6.22361C4.98238 6.3828 4.87673 6.52266 4.7236 6.56617L4.38535 6.66228C4.31435 6.68245 4.25474 6.73086 4.22042 6.79621L4.15322 6.92418C4.11202 7.00265 4.01069 7.0261 3.9392 6.97373C3.87835 6.92915 3.79348 6.93869 3.74404 6.99566L3.7214 7.02174C3.6926 7.05493 3.67674 7.09739 3.67674 7.14134V7.18842C3.67674 7.25853 3.65287 7.32655 3.60905 7.38127Z" fill="#0C2503"/>
<path d="M3.59673 7.39666L4.95429 8.48367L4.9543 8.48366L3.59673 7.39666ZM3.60905 7.38127L2.25149 6.29425L2.25148 6.29427L3.60905 7.38127ZM3.7214 7.02174L5.03489 8.16162L5.03489 8.16162L3.7214 7.02174ZM3.74404 6.99566L2.43055 5.85578L2.43055 5.85578L3.74404 6.99566ZM4.15322 6.92418L2.61346 6.11565L2.61346 6.11565L4.15322 6.92418ZM4.22042 6.79621L5.76018 7.60474L5.76018 7.60474L4.22042 6.79621ZM4.38535 6.66228L3.91003 4.98936L3.91003 4.98936L4.38535 6.66228ZM4.7236 6.56617L4.24827 4.89326L4.24827 4.89326L4.7236 6.56617ZM5.2625 5.77646L3.64926 5.12682L3.64926 5.12682L5.2625 5.77646ZM5.42164 5.38125L7.03488 6.0309L7.03488 6.03089L5.42164 5.38125ZM7.98094 3.86908L9.21681 5.09269L9.21681 5.09269L7.98094 3.86908ZM8.0698 3.77934L6.83393 2.55573L6.83393 2.55573L8.0698 3.77934ZM9.09551 3.73739L10.5807 2.8325L10.5807 2.8325L9.09551 3.73739ZM9.1388 3.80845L7.65362 4.71333L7.65363 4.71334L9.1388 3.80845ZM10.7535 3.40724L12.14 4.45703L12.14 4.45703L10.7535 3.40724ZM10.8283 3.3084L9.44178 2.25861L9.44178 2.25861L10.8283 3.3084ZM11.6441 3.33214L10.6412 4.75294L10.6412 4.75295L11.6441 3.33214ZM11.6965 3.36915L12.6995 1.94835L12.6995 1.94834L11.6965 3.36915ZM12.0192 3.52025L13.5149 2.63275L13.5149 2.63273L12.0192 3.52025ZM12.0294 3.53736L10.5337 4.42486L10.5338 4.42487L12.0294 3.53736ZM13.4688 3.90707L13.0783 2.21235L13.0783 2.21235L13.4688 3.90707ZM13.6479 3.86581L13.2574 2.17108L13.2574 2.17108L13.6479 3.86581ZM14.1728 4.43839L12.6538 5.28526L12.6538 5.28527L14.1728 4.43839ZM14.248 4.57322L12.729 5.42009L12.729 5.4201L14.248 4.57322ZM14.6871 4.81752L16.1163 3.82665L16.1163 3.82664L14.6871 4.81752ZM14.8751 5.0887L13.4458 6.07957L13.4458 6.07959L14.8751 5.0887ZM15.016 5.4286L13.9465 6.80001L13.9465 6.80001L15.016 5.4286ZM15.3687 5.70368L16.4382 4.33227L16.4382 4.33226L15.3687 5.70368ZM15.45 5.75345L16.1857 4.17761L16.1857 4.1776L15.45 5.75345ZM15.5078 5.78045L14.7721 7.35629L14.7721 7.35629L15.5078 5.78045ZM15.9248 6.38285L15.4264 8.04904L15.4264 8.04904L15.9248 6.38285ZM15.993 6.40327L16.4915 4.73708L16.4915 4.73708L15.993 6.40327ZM16.7172 7.35148L15.6572 8.73027H15.6572L16.7172 7.35148ZM17.023 7.58659L18.083 6.20781L18.083 6.20781L17.023 7.58659ZM14.0322 3.99451L15.3646 2.87682L15.3646 2.87681L14.0322 3.99451ZM9.32452 3.85181L10.2554 5.32085L10.2554 5.32085L9.32452 3.85181ZM6.10005 4.92955L7.7882 5.34754V5.34754L6.10005 4.92955ZM3.9392 6.97373L4.96698 5.57079L4.96698 5.57079L3.9392 6.97373ZM4.9543 8.48366L4.96662 8.46828L2.25148 6.29427L2.23916 6.30965L4.9543 8.48366ZM5.41587 7.18842V7.14134H1.93761V7.18842H5.41587ZM5.03489 8.16162L5.05752 8.13554L2.43055 5.85578L2.40792 5.88186L5.03489 8.16162ZM5.69298 7.73271L5.76018 7.60474L2.68066 5.98768L2.61346 6.11565L5.69298 7.73271ZM4.86067 8.33519L5.19892 8.23908L4.24827 4.89326L3.91003 4.98936L4.86067 8.33519ZM6.72152 6.22361V6.01281H3.24325V6.22361H6.72152ZM6.87573 6.4261L7.03488 6.0309L3.80841 4.73161L3.64926 5.12682L6.87573 6.4261ZM5.7596 6.89215H5.81451V3.41389H5.7596V6.89215ZM6.38559 6.44522H7.08334V2.96696H6.38559V6.44522ZM7.44062 6.08794H7.46117V2.60968H7.44062V6.08794ZM9.39949 4.14962V4.11205H5.92123V4.14962H9.39949ZM9.21681 5.09269L9.30567 5.00294L6.83393 2.55573L6.74507 2.64548L9.21681 5.09269ZM8.41812 5.37317H8.91152V1.89491H8.41812V5.37317ZM7.61033 4.64227L7.65362 4.71333L10.624 2.90356L10.5807 2.8325L7.61033 4.64227ZM11.1258 3.73889V3.52208H7.64752V3.73889H11.1258ZM9.6547 4.99316H10.4862V1.5149H9.6547V4.99316ZM12.14 4.45703L12.2149 4.35819L9.44178 2.25861L9.36694 2.35745L12.14 4.45703ZM10.9377 4.99316H11.398V1.5149H10.9377V4.99316ZM10.6412 4.75295L10.6936 4.78995L12.6995 1.94834L12.6471 1.91134L10.6412 4.75295ZM10.5236 4.40774L10.5337 4.42486L13.525 2.64987L13.5149 2.63275L10.5236 4.40774ZM12.1992 5.37317H12.2513V1.89491H12.1992V5.37317ZM12.5419 5.66377H13.0163V2.18551H12.5419V5.66377ZM13.0163 5.66377H13.3143V2.18551H13.0163V5.66377ZM13.8593 5.60179L14.0384 5.56053L13.2574 2.17108L13.0783 2.21235L13.8593 5.60179ZM12.6538 5.28527L12.729 5.42009L15.767 3.72634L15.6918 3.59152L12.6538 5.28527ZM13.2578 5.80839L13.4458 6.07957L16.3043 4.09783L16.1163 3.82665L13.2578 5.80839ZM13.9465 6.80001L14.2993 7.0751L16.4382 4.33226L16.0855 4.05718L13.9465 6.80001ZM14.7143 7.32929L14.7721 7.35629L16.2436 4.20461L16.1857 4.17761L14.7143 7.32929ZM15.4264 8.04904L15.4946 8.06945L16.4915 4.73708L16.4232 4.71667L15.4264 8.04904ZM14.5527 6.8045V7.0732H18.031V6.8045H14.5527ZM16.5154 9.03586H16.5561V5.5576H16.5154V9.03586ZM15.6572 8.73027L15.963 8.96538L18.083 6.20781L17.7771 5.9727L15.6572 8.73027ZM15.3716 7.76468V7.83437H18.8498V7.76468H15.3716ZM17.2656 6.25017H3.88141V9.72843H17.2656V6.25017ZM14.5527 7.0732C14.5527 8.15715 15.4314 9.03586 16.5154 9.03586V5.5576C17.3524 5.5576 18.031 6.23615 18.031 7.0732H14.5527ZM15.4946 8.06945C14.9357 7.90224 14.5527 7.38796 14.5527 6.8045H18.031C18.031 5.85091 17.4051 5.01037 16.4915 4.73708L15.4946 8.06945ZM13.9551 6.07326C13.9551 6.98458 14.5533 7.78786 15.4264 8.04904L16.4232 4.71667C17.0227 4.89599 17.4334 5.44753 17.4334 6.07326H13.9551ZM14.7721 7.35629C14.2737 7.1236 13.9551 6.62331 13.9551 6.07326H17.4334C17.4334 5.27214 16.9694 4.54351 16.2435 4.2046L14.7721 7.35629ZM14.2992 7.07509C14.4276 7.17517 14.5668 7.26045 14.7143 7.3293L16.1857 4.1776C16.2754 4.21949 16.3602 4.27138 16.4382 4.33227L14.2992 7.07509ZM13.1805 5.23127C13.1805 5.84428 13.4631 6.42305 13.9465 6.80001L16.0855 4.05719C16.4473 4.33931 16.6588 4.77248 16.6588 5.23127H13.1805ZM13.4458 6.07959C13.2731 5.83042 13.1805 5.53445 13.1805 5.23127H16.6588C16.6588 4.82619 16.5351 4.43074 16.3043 4.09782L13.4458 6.07959ZM14.4742 6.44522C13.9889 6.44522 13.5343 6.20726 13.2578 5.8084L16.1163 3.82664C15.743 3.28819 15.1294 2.96696 14.4742 2.96696V6.44522ZM12.729 5.4201C13.0818 6.05295 13.7496 6.44522 14.4742 6.44522V2.96696C15.011 2.96696 15.5056 3.25754 15.767 3.72633L12.729 5.4201ZM12.3838 4.24523C12.3838 4.60433 12.4745 4.96362 12.6538 5.28526L15.6918 3.59153C15.8057 3.79567 15.862 4.02064 15.862 4.24523H12.3838ZM12.6998 5.1122C12.4915 4.86389 12.3838 4.55627 12.3838 4.24523H15.862C15.862 3.75182 15.6901 3.26486 15.3646 2.87682L12.6998 5.1122ZM14.0384 5.56053C13.5434 5.67459 13.0262 5.50139 12.6998 5.11221L15.3646 2.87681C14.8507 2.26418 14.0366 1.99153 13.2574 2.17108L14.0384 5.56053ZM13.3143 5.66377C13.4977 5.66377 13.6805 5.64298 13.8593 5.60179L13.0783 2.21235C13.1557 2.19451 13.2349 2.18551 13.3143 2.18551V5.66377ZM10.6575 3.77934C10.6575 4.82008 11.5012 5.66377 12.5419 5.66377V2.18551C13.4221 2.18551 14.1357 2.89909 14.1357 3.77934H10.6575ZM12.2513 5.37317C11.3711 5.37317 10.6575 4.65959 10.6575 3.77934H14.1357C14.1357 2.73859 13.292 1.89491 12.2513 1.89491V5.37317ZM10.5338 4.42487C10.8826 5.01276 11.5156 5.37317 12.1992 5.37317V1.89491C12.7434 1.89491 13.2473 2.18183 13.525 2.64985L10.5338 4.42487ZM11.8261 5.14939C11.2914 5.14939 10.7964 4.86752 10.5236 4.40776L13.5149 2.63273C13.1611 2.0366 12.5193 1.67113 11.8261 1.67113V5.14939ZM10.6936 4.78994C11.0249 5.02383 11.4205 5.14939 11.8261 5.14939V1.67113C12.1388 1.67113 12.4439 1.76797 12.6995 1.94835L10.6936 4.78994ZM11.398 4.99316C11.127 4.99316 10.8626 4.90925 10.6412 4.75294L12.6471 1.91134C12.2816 1.65339 11.8453 1.5149 11.398 1.5149V4.99316ZM12.2149 4.3582C11.9121 4.75815 11.4394 4.99316 10.9377 4.99316V1.5149C10.3501 1.5149 9.79646 1.79016 9.44178 2.25861L12.2149 4.3582ZM8.84265 3.34957C8.84265 5.1085 11.0783 5.85935 12.14 4.45703L9.36695 2.35745C10.3181 1.10118 12.3209 1.77383 12.3209 3.34957H8.84265ZM11.1258 3.52208C11.1258 4.33454 10.4672 4.99316 9.6547 4.99316V1.5149C8.54617 1.5149 7.64752 2.41354 7.64752 3.52208H11.1258ZM10.2554 5.32085C10.7973 4.97743 11.1258 4.38049 11.1258 3.73889H7.64752C7.64752 3.18889 7.92907 2.67717 8.39365 2.38278L10.2554 5.32085ZM7.65363 4.71334C8.1985 5.60763 9.37081 5.88137 10.2554 5.32085L8.39366 2.38278C9.15195 1.90228 10.1569 2.13694 10.624 2.90356L7.65363 4.71334ZM8.91152 5.37317C8.38 5.37317 7.88689 5.09618 7.61033 4.64227L10.5807 2.8325C10.2259 2.25022 9.59336 1.89491 8.91152 1.89491V5.37317ZM9.30566 5.00294C9.07109 5.23987 8.75153 5.37317 8.41812 5.37317V1.89491C7.82302 1.89491 7.25263 2.13284 6.83393 2.55573L9.30566 5.00294ZM7.84776 5.66377C8.36204 5.66377 8.85497 5.45815 9.21681 5.09269L6.74507 2.64548C7.03651 2.35112 7.43354 2.18551 7.84776 2.18551V5.66377ZM9.39949 4.11205C9.39949 4.96904 8.70476 5.66377 7.84776 5.66377V2.18551C6.78377 2.18551 5.92123 3.04805 5.92123 4.11205H9.39949ZM7.46117 6.08794C8.53167 6.08794 9.39949 5.22013 9.39949 4.14962H5.92123C5.92123 3.29914 6.61068 2.60968 7.46117 2.60968V6.08794ZM9.00111 4.52745C9.00111 5.38929 8.30245 6.08794 7.44062 6.08794V2.60968C6.38146 2.60968 5.52285 3.4683 5.52285 4.52745H9.00111ZM7.08334 6.44522C8.14249 6.44522 9.00111 5.58661 9.00111 4.52745H5.52285C5.52285 3.66561 6.22151 2.96696 7.08334 2.96696V6.44522ZM7.7882 5.34754C7.62855 5.99234 7.04986 6.44522 6.38559 6.44522V2.96696C5.45087 2.96696 4.63655 3.60424 4.4119 4.51157L7.7882 5.34754ZM5.81451 6.89215C6.74923 6.89215 7.56355 6.25487 7.7882 5.34754L4.4119 4.51157C4.57155 3.86677 5.15024 3.41389 5.81451 3.41389V6.89215ZM7.03488 6.03089C6.82532 6.55129 6.3206 6.89215 5.7596 6.89215V3.41389C4.90127 3.41389 4.12903 3.93541 3.8084 4.73161L7.03488 6.03089ZM5.1277 7.60662C5.89666 7.60662 6.58849 7.1394 6.87573 6.4261L3.64926 5.12682C3.8922 4.52353 4.47733 4.12836 5.1277 4.12836V7.60662ZM6.72152 6.01281C6.72152 6.89305 6.00794 7.60662 5.1277 7.60662V4.12836C4.08695 4.12836 3.24325 4.97206 3.24325 6.01281H6.72152ZM5.19892 8.23908C6.09989 7.98309 6.72152 7.16024 6.72152 6.22361H3.24325C3.24325 5.60537 3.65357 5.06223 4.24827 4.89326L5.19892 8.23908ZM5.76018 7.60474C5.57304 7.96114 5.24789 8.22517 4.86068 8.33519L3.91003 4.98936C3.38081 5.13973 2.93644 5.50059 2.68066 5.98768L5.76018 7.60474ZM2.91142 8.37667C3.84053 9.05733 5.15752 8.75244 5.69298 7.73271L2.61346 6.11565C3.06652 5.25285 4.18084 4.99488 4.96698 5.57079L2.91142 8.37667ZM5.05752 8.13554C4.51384 8.76203 3.58057 8.86689 2.91142 8.37667L4.96698 5.57079C4.17612 4.99142 3.07312 5.11535 2.43055 5.85578L5.05752 8.13554ZM15.3716 7.83437C15.3716 8.88043 16.2196 9.72843 17.2656 9.72843V6.25017C18.1406 6.25017 18.8498 6.95945 18.8498 7.83437H15.3716ZM5.41587 7.14134C5.41587 7.51621 5.28059 7.87849 5.03489 8.16162L2.40792 5.88186C2.10461 6.23136 1.93761 6.67858 1.93761 7.14134H5.41587ZM15.963 8.96538C15.5901 8.6787 15.3716 8.23503 15.3716 7.76468H18.8498C18.8498 7.1548 18.5665 6.57953 18.083 6.20781L15.963 8.96538ZM4.9666 8.46829C5.25742 8.1051 5.41587 7.65369 5.41587 7.18842H1.93761C1.93761 6.86336 2.04831 6.548 2.25149 6.29425L4.9666 8.46829ZM10.4862 4.99316C9.57851 4.99316 8.84265 4.2573 8.84265 3.34957H12.3209C12.3209 2.33631 11.4995 1.5149 10.4862 1.5149V4.99316ZM16.5561 9.03586C16.231 9.03586 15.915 8.92842 15.6572 8.73027L17.7771 5.9727C17.427 5.70353 16.9977 5.5576 16.5561 5.5576V9.03586ZM2.23917 6.30964C1.13629 7.687 2.11692 9.72843 3.88141 9.72843V6.25017C5.03416 6.25017 5.6748 7.58384 4.95429 8.48367L2.23917 6.30964Z" fill="#0C2503" mask="url(#path-4-outside-2_1583_10953)"/>
<mask id="path-6-outside-3_1583_10953" maskUnits="userSpaceOnUse" x="1.19775" y="5.44971" width="19" height="12" fill="black">
<rect fill="white" x="1.19775" y="5.44971" width="19" height="12"/>
<path d="M17.0621 7.6603C17.297 7.6603 17.4887 7.85097 17.475 8.0855C17.3722 9.8428 16.635 11.5073 15.3948 12.759C14.0549 14.1112 12.2375 14.8709 10.3426 14.8709C8.44767 14.8709 6.63035 14.1112 5.29043 12.759C4.05016 11.5073 3.31297 9.8428 3.21018 8.0855C3.19646 7.85097 3.38821 7.6603 3.62314 7.6603L10.3426 7.6603H17.0621Z"/>
</mask>
<path d="M17.0621 7.6603C17.297 7.6603 17.4887 7.85097 17.475 8.0855C17.3722 9.8428 16.635 11.5073 15.3948 12.759C14.0549 14.1112 12.2375 14.8709 10.3426 14.8709C8.44767 14.8709 6.63035 14.1112 5.29043 12.759C4.05016 11.5073 3.31297 9.8428 3.21018 8.0855C3.19646 7.85097 3.38821 7.6603 3.62314 7.6603L10.3426 7.6603H17.0621Z" stroke="#0C2503" stroke-width="3.47826" mask="url(#path-6-outside-3_1583_10953)"/>
<path d="M3.24182 7.88587L3.3037 7.79497C3.3169 7.77559 3.33409 7.75927 3.35413 7.7471V7.7471C3.37979 7.73151 3.40924 7.72327 3.43926 7.72327H5.79654H17.0839C17.1958 7.72327 17.3045 7.76062 17.3927 7.8294L17.4221 7.85233C17.4356 7.86283 17.4477 7.87497 17.4581 7.88848V7.88848" stroke="#EDFAE7" stroke-width="0.869565" stroke-linecap="round"/>
<path d="M8.17418 16.3556C8.17398 16.0048 8.45834 15.7203 8.80917 15.7203H12.7559C13.1068 15.7203 13.3912 16.0047 13.3912 16.3556V17.4614C13.3912 17.9406 13.0028 18.329 12.5237 18.329H9.04175C8.5626 18.329 8.17418 17.9406 8.17418 17.4614V16.3556Z" fill="#0C2503"/>
</svg>
